<?xml version="1.0" encoding="UTF-8"?>
<svg version="1.1" xmlns="http://www.w3.org/2000/svg" width="2048" height="512">
<path d="M0 0 C675.84 0 1351.68 0 2048 0 C2048 168.96 2048 337.92 2048 512 C1372.16 512 696.32 512 0 512 C0 343.04 0 174.08 0 0 Z " fill="#FDFEFE" transform="translate(0,0)"/>
<path d="M0 0 C1.50208511 -0.01913956 1.50208511 -0.01913956 3.03451538 -0.03866577 C4.11061066 -0.04089142 5.18670593 -0.04311707 6.29541016 -0.04541016 C7.96357285 -0.05539536 7.96357285 -0.05539536 9.66543579 -0.06558228 C12.01733751 -0.07570459 14.36926793 -0.08039943 16.72119141 -0.08007812 C20.31412242 -0.08444791 23.90582173 -0.12076449 27.49853516 -0.15869141 C29.78498929 -0.16456032 32.07144926 -0.16852921 34.35791016 -0.17041016 C35.42995697 -0.18478119 36.50200378 -0.19915222 37.60653687 -0.21395874 C43.67573256 -0.17689856 47.42278726 0.0916704 51.95947266 4.29052734 C53.77152461 7.2456161 54.20587247 9.43136024 54.18652344 12.87548828 C54.18637238 13.77612 54.18622131 14.67675171 54.18606567 15.60467529 C54.1757431 16.56835022 54.16542053 17.53202515 54.15478516 18.52490234 C54.15195526 19.51806458 54.14912537 20.51122681 54.14620972 21.53448486 C54.13502409 24.70328878 54.10992228 27.871809 54.08447266 31.04052734 C54.07444077 33.19026284 54.06531529 35.34000278 54.05712891 37.48974609 C54.03509007 42.75676981 54.0016285 48.0236283 53.95947266 53.29052734 C54.78513229 53.27720367 54.78513229 53.27720367 55.62747192 53.26361084 C61.37019438 53.17493444 67.11272149 53.11470931 72.85595703 53.07080078 C74.99763899 53.05071846 77.13926635 53.02344697 79.28076172 52.98876953 C82.36390681 52.94010336 85.44632528 52.91752444 88.52978516 52.89990234 C89.48313751 52.8792572 90.43648987 52.85861206 91.41873169 52.83734131 C97.11581563 52.83542986 100.50350163 53.37943242 104.95947266 57.29052734 C107.65761443 60.3134242 108.33821169 62.20411705 108.36352539 66.23925781 C108.38255165 67.7113118 108.38255165 67.7113118 108.40196228 69.21310425 C108.39902664 70.26732574 108.396091 71.32154724 108.39306641 72.40771484 C108.39830826 73.49762726 108.40355011 74.58753967 108.40895081 75.71047974 C108.41537218 78.01531116 108.41403254 80.32017536 108.40551758 82.625 C108.39702071 86.14561627 108.42574825 89.66460316 108.45751953 93.18505859 C108.459132 95.42594352 108.45855315 97.66683132 108.45556641 99.90771484 C108.46680038 100.95788788 108.47803436 102.00806091 108.48960876 103.09005737 C108.43384251 108.96140859 108.1186322 112.77664869 103.95947266 117.29052734 C99.43159335 121.28571496 94.34589885 120.67587222 88.62744141 120.58349609 C87.63569412 120.57925125 86.64394684 120.57500641 85.62214661 120.57063293 C82.46347581 120.55387858 79.30544969 120.51623182 76.14697266 120.47802734 C74.0017996 120.46297634 71.85661651 120.44928866 69.71142578 120.43701172 C64.46055584 120.40398575 59.21006032 120.35381856 53.95947266 120.29052734 C53.97057571 120.8409671 53.98167877 121.39140686 53.99311829 121.95852661 C54.10396264 127.70118947 54.17924301 133.44354721 54.23413086 139.18701172 C54.25923429 141.3287389 54.29332433 143.47038075 54.33666992 145.61181641 C54.39750416 148.69503864 54.42572447 151.77712577 54.44775391 154.86083984 C54.48646355 156.29086838 54.48646355 156.29086838 54.5259552 157.74978638 C54.52779244 162.13050419 54.45637701 165.2937253 51.67895508 168.81738281 C47.80948979 172.33634173 45.23381443 173.534822 40.01074219 173.58105469 C39.02937286 173.59381439 38.04800354 173.6065741 37.03689575 173.61972046 C35.98267426 173.62194611 34.92845276 173.62417175 33.84228516 173.62646484 C32.20741653 173.63645004 32.20741653 173.63645004 30.53952026 173.64663696 C28.23469734 173.65675858 25.92984513 173.66145413 23.625 173.66113281 C20.10448739 173.6655025 16.58523195 173.70181936 13.06494141 173.73974609 C10.82406027 173.74561505 8.58317319 173.74958392 6.34228516 173.75146484 C4.7670256 173.77302139 4.7670256 173.77302139 3.15994263 173.79501343 C-2.86323515 173.75748871 -6.53076837 173.44081939 -11.04052734 169.29052734 C-12.85354667 166.33608369 -13.28692586 164.14946404 -13.26757812 160.70556641 C-13.26742706 159.80493469 -13.267276 158.90430298 -13.26712036 157.97637939 C-13.25679779 157.01270447 -13.24647522 156.04902954 -13.23583984 155.05615234 C-13.23300995 154.06299011 -13.23018005 153.06982788 -13.2272644 152.04656982 C-13.21607878 148.8777659 -13.19097697 145.70924569 -13.16552734 142.54052734 C-13.15549546 140.39079185 -13.14636997 138.24105191 -13.13818359 136.09130859 C-13.11614475 130.82428488 -13.08268318 125.55742638 -13.04052734 120.29052734 C-13.60349518 120.29940979 -14.16646301 120.30829224 -14.74649048 120.31744385 C-20.61897605 120.40610804 -26.4912707 120.46634044 -32.36425781 120.51025391 C-34.55444058 120.53033841 -36.74456993 120.55761151 -38.93457031 120.59228516 C-42.0872111 120.64094144 -45.23914138 120.66352812 -48.39208984 120.68115234 C-49.36731598 120.70179749 -50.34254211 120.72244263 -51.34732056 120.74371338 C-57.06413222 120.74558973 -60.61224719 120.29769449 -65.04052734 116.29052734 C-66.98089686 113.18518 -67.30027942 110.77473042 -67.33105469 107.14233398 C-67.35019424 105.60537621 -67.35019424 105.60537621 -67.36972046 104.03736877 C-67.37305893 102.38570961 -67.37305893 102.38570961 -67.37646484 100.70068359 C-67.38312164 99.56400742 -67.38977844 98.42733124 -67.39663696 97.25621033 C-67.40675916 94.85303363 -67.41145412 92.44982885 -67.41113281 90.04663086 C-67.4155068 86.37029758 -67.45183525 82.69516392 -67.48974609 79.01904297 C-67.49561412 76.68376062 -67.49958361 74.34847256 -67.50146484 72.01318359 C-67.51583588 70.91410172 -67.53020691 69.81501984 -67.54501343 68.68263245 C-67.49934494 61.05453689 -67.49934494 61.05453689 -65.13671875 57.12036133 C-62.05601224 54.43111193 -60.40762939 54.16652969 -56.40722656 54.17700195 C-55.44638153 54.17707748 -54.4855365 54.17715302 -53.49557495 54.17723083 C-52.45595612 54.18239212 -51.41633728 54.18755341 -50.34521484 54.19287109 C-49.28263458 54.19428604 -48.22005432 54.19570099 -47.12527466 54.19715881 C-43.72199725 54.20276901 -40.31878496 54.21532325 -36.91552734 54.22802734 C-34.61214288 54.23304103 -32.30875738 54.23760416 -30.00537109 54.24169922 C-24.35040085 54.25274175 -18.69546875 54.26948983 -13.04052734 54.29052734 C-13.04940979 53.71281082 -13.05829224 53.1350943 -13.06744385 52.53987122 C-13.15600667 46.5215546 -13.21629857 40.50342341 -13.26025391 34.48461914 C-13.28035674 32.23909993 -13.30764339 29.99363299 -13.34228516 27.74829102 C-13.39086044 24.51874894 -13.41350972 21.2898996 -13.43115234 18.06005859 C-13.45179749 17.05779739 -13.47244263 16.05553619 -13.49371338 15.02290344 C-13.49510461 10.69160012 -13.47723983 8.04071382 -11.26611328 4.24243164 C-7.59718873 1.02467694 -4.86985541 0.04223498 0 0 Z " fill="#2593D3" transform="translate(486.04052734375,168.70947265625)"/>
<path d="M0 0 C10.23 0 20.46 0 31 0 C33.206875 4.145625 35.41375 8.29125 37.6875 12.5625 C43.08442119 22.66523009 48.5932293 32.69133532 54.26513672 42.64306641 C59.98247186 52.68616895 65.50051295 62.83637204 71 73 C75.14034608 68.38229637 77.66174304 63.11380306 80.4375 57.625 C84.62757682 49.46329559 88.95274403 41.40580958 93.5 33.4375 C99.81588103 22.36989789 105.92357208 11.20112616 112 0 C122.56 0 133.12 0 144 0 C144 43.56 144 87.12 144 132 C134.1 132 124.2 132 114 132 C113.67 105.27 113.34 78.54 113 51 C103.85983476 67.59734195 103.85983476 67.59734195 95.25 84.4375 C91.46647995 92.10990569 87.55490795 99.68803623 83.4609375 107.19921875 C81.92274004 109.96782692 81.92274004 109.96782692 81 113 C78.11869243 113.27182147 75.26296611 113.46828866 72.375 113.625 C71.56675781 113.70878906 70.75851562 113.79257812 69.92578125 113.87890625 C67.32574994 113.98459858 65.45791558 113.87060487 63 113 C60.22335721 110.09383085 58.72900899 106.59734007 57 103 C56.34504198 101.76175211 55.68301162 100.52722738 55.01513672 99.29589844 C52.72385769 95.07025403 50.48591496 90.81763123 48.25 86.5625 C47.4950487 85.13072382 46.73984141 83.69908258 45.984375 82.26757812 C43.65317143 77.84667409 41.32663426 73.42331048 39 69 C35.7 62.73 32.4 56.46 29 50 C28.67 76.73 28.34 103.46 28 131 C18.76 131 9.52 131 0 131 C0 87.77 0 44.54 0 0 Z " fill="#0C185D" transform="translate(729,179)"/>
<path d="M0 0 C9.57 0 19.14 0 29 0 C29 45.21 29 90.42 29 137 C19.76 137 10.52 137 1 137 C0.67 133.37 0.34 129.74 0 126 C-0.5775 126.86625 -1.155 127.7325 -1.75 128.625 C-7.40849363 135.40876225 -17.37418455 139.06467061 -26 140 C-39.96266188 141.14790195 -51.47508745 136.82045874 -62.125 127.9375 C-72.94107255 117.82792052 -77.52366289 104.81633777 -78.16015625 90.36328125 C-78.58189687 75.44555849 -75.65511687 62.38060547 -65.8125 50.75 C-58.72135978 43.27142994 -50.91996435 39.41907903 -41 37 C-40.37867188 36.81695312 -39.75734375 36.63390625 -39.1171875 36.4453125 C-28.43168882 34.19780909 -17.66111777 36.15114088 -8.2890625 41.56640625 C-2.91752283 45.08247717 -2.91752283 45.08247717 -1 47 C-0.67 31.49 -0.34 15.98 0 0 Z " fill="#0A165B" transform="translate(1085,173)"/>
<path d="M0 0 C6.6473592 1.21770947 10.45392394 6.94236759 14.30078125 12.0703125 C18.57749022 17.65021504 22.9982316 23.06654706 27.5847168 28.39453125 C33.05626404 34.77207154 33.05626404 34.77207154 33.30078125 38.1953125 C33.11328125 40.5703125 33.11328125 40.5703125 32.11328125 41.5703125 C29.25060558 41.64356418 26.41256225 41.66269455 23.55078125 41.6328125 C22.74447266 41.62830078 21.93816406 41.62378906 21.10742188 41.61914062 C19.10934369 41.60731768 17.11130342 41.58938164 15.11328125 41.5703125 C15.12375488 42.20388672 15.13422852 42.83746094 15.14501953 43.49023438 C15.46419544 67.01805885 10.27154258 88.94368242 -0.88671875 109.5703125 C-1.39332031 110.53710938 -1.89992188 111.50390625 -2.421875 112.5 C-21.89786571 149.16679852 -54.12501915 175.58737278 -93.73828125 187.95703125 C-108.60477982 192.20074084 -123.10463705 193.97836424 -138.51171875 193.9453125 C-139.25052277 193.94643036 -139.98932678 193.94754822 -140.7505188 193.94869995 C-153.87211476 193.93895255 -166.35562796 192.74734276 -178.88671875 188.5703125 C-179.00789063 189.70210937 -179.1290625 190.83390625 -179.25390625 192 C-179.42272151 193.48182281 -179.5920173 194.96359092 -179.76171875 196.4453125 C-179.84035156 197.19167969 -179.91898437 197.93804687 -180 198.70703125 C-180.66015625 204.34375 -180.66015625 204.34375 -182.88671875 206.5703125 C-186.47270612 206.50932632 -187.79008538 205.65786819 -190.46484375 203.234375 C-191.36781327 202.23234199 -192.25786362 201.21856113 -193.13671875 200.1953125 C-193.61343018 199.65729004 -194.0901416 199.11926758 -194.58129883 198.56494141 C-198.40886858 194.21261905 -202.12244051 189.76396611 -205.73828125 185.234375 C-207.19552256 183.42739578 -208.69221698 181.65166736 -210.22265625 179.90625 C-215.67213478 173.57720651 -215.67213478 173.57720651 -216.69921875 168.7578125 C-215.47068483 163.93817944 -212.68679927 161.69088609 -208.59204102 159.1418457 C-205.83798223 157.59219029 -203.05899234 156.10298119 -200.26171875 154.6328125 C-199.32714844 154.13330078 -198.39257812 153.63378906 -197.4296875 153.11914062 C-195.54242012 152.11042875 -193.65144708 151.10861949 -191.75683594 150.11376953 C-189.78398647 149.05283432 -187.83207516 147.95231687 -185.89941406 146.81982422 C-184.93874023 146.26182129 -183.97806641 145.70381836 -182.98828125 145.12890625 C-182.12799316 144.61513428 -181.26770508 144.1013623 -180.38134766 143.57202148 C-177.40144799 142.37545383 -175.90676283 142.59791746 -172.88671875 143.5703125 C-171.88671875 144.5703125 -171.88671875 144.5703125 -171.76171875 148.1328125 C-171.80737633 152.34091959 -172.29193298 156.40681212 -172.88671875 160.5703125 C-171.11716131 161.03354743 -169.34597363 161.49055458 -167.57421875 161.9453125 C-166.58808594 162.20054687 -165.60195313 162.45578125 -164.5859375 162.71875 C-132.45923634 170.11433696 -98.89818386 163.83732909 -70.88671875 146.5703125 C-40.55875964 126.32686495 -21.85401297 96.62510928 -14.69921875 61.0078125 C-13.60037215 54.57032178 -13.2736299 48.08331684 -12.88671875 41.5703125 C-19.15671875 41.5703125 -25.42671875 41.5703125 -31.88671875 41.5703125 C-32.21671875 40.2503125 -32.54671875 38.9303125 -32.88671875 37.5703125 C-31.55189486 35.42112358 -30.24212937 33.62501899 -28.63671875 31.6953125 C-27.70571672 30.53516624 -26.77472758 29.37500963 -25.84375 28.21484375 C-25.35600098 27.61623535 -24.86825195 27.01762695 -24.36572266 26.40087891 C-22.91418463 24.60430708 -21.49532032 22.78679981 -20.0859375 20.95703125 C-17.39289313 17.46201586 -14.65294536 14.0076052 -11.88671875 10.5703125 C-11.066875 9.54550781 -10.24703125 8.52070313 -9.40234375 7.46484375 C-8.24992187 6.09392578 -8.24992187 6.09392578 -7.07421875 4.6953125 C-6.07455078 3.49261719 -6.07455078 3.49261719 -5.0546875 2.265625 C-2.88671875 0.5703125 -2.88671875 0.5703125 0 0 Z " fill="#2893D3" transform="translate(637.88671875,205.4296875)"/>
<path d="M0 0 C1.00916977 -0.00312698 1.00916977 -0.00312698 2.03872681 -0.00631714 C14.32969329 -0.0019943 26.04488161 1.4151941 37.875 4.75 C38.62458984 4.9459375 39.37417969 5.141875 40.14648438 5.34375 C45.8034531 6.91319874 50.51844878 9.00817017 54.3125 13.6875 C56.25132689 18.31914202 56.00576268 21.92593015 54.1875 26.5625 C51.75299604 30.47509565 49.85897895 32.90117368 45.4375 34.375 C39.30769066 34.95986254 34.03961834 34.27360613 28.25 32.2265625 C-0.26878794 23.59170726 -33.30750639 29.67828338 -59.3125 43.1875 C-88.32950191 58.93453152 -109.83911437 86.28927786 -119.53515625 117.6953125 C-123.51483196 131.94951219 -124.20904131 145.6394289 -124.5625 160.375 C-118.6225 160.375 -112.6825 160.375 -106.5625 160.375 C-105.5625 165.375 -105.5625 165.375 -107.08203125 167.9609375 C-107.83871094 168.88132812 -108.59539062 169.80171875 -109.375 170.75 C-110.21607991 171.80293338 -111.05315323 172.85907657 -111.88671875 173.91796875 C-112.32677246 174.47532715 -112.76682617 175.03268555 -113.22021484 175.60693359 C-115.5332292 178.65365058 -117.59972659 181.8592085 -119.6875 185.0625 C-130.7922816 201.98161813 -130.7922816 201.98161813 -135.9375 203.125 C-140.6316722 203.06621788 -142.7540135 200.77196345 -146 197.5625 C-150.34707903 192.97121983 -154.36335621 188.10174324 -158.28515625 183.14453125 C-159.91671561 181.16035357 -161.54096964 179.30174788 -163.30859375 177.44921875 C-164.21738281 176.49660156 -165.12617188 175.54398438 -166.0625 174.5625 C-166.8978125 173.71042969 -167.733125 172.85835937 -168.59375 171.98046875 C-170.82911322 169.02216068 -171.35293054 167.04770476 -171.5625 163.375 C-170.5625 162.375 -170.5625 162.375 -168.79663086 162.26147461 C-168.04776611 162.26671143 -167.29890137 162.27194824 -166.52734375 162.27734375 C-165.71845703 162.28056641 -164.90957031 162.28378906 -164.07617188 162.28710938 C-163.22603516 162.29548828 -162.37589844 162.30386719 -161.5 162.3125 C-160.64599609 162.31701172 -159.79199219 162.32152344 -158.91210938 162.32617188 C-156.79554337 162.33799627 -154.67901315 162.35593231 -152.5625 162.375 C-152.58868408 161.71830322 -152.61486816 161.06160645 -152.6418457 160.38500977 C-154.00035918 120.67858428 -142.29956048 81.76598327 -115.0625 52.1875 C-114.2478125 51.32769531 -113.433125 50.46789062 -112.59375 49.58203125 C-110.43285821 47.34879346 -110.43285821 47.34879346 -108.5625 44.375 C-107.9025 44.375 -107.2425 44.375 -106.5625 44.375 C-106.5625 43.715 -106.5625 43.055 -106.5625 42.375 C-104.13375841 39.79216907 -101.30065169 37.62020154 -98.5625 35.375 C-97.61761719 34.59382813 -96.67273438 33.81265625 -95.69921875 33.0078125 C-88.0516282 26.83119275 -79.98617394 21.89456099 -71.3046875 17.30322266 C-69.8774415 16.54279815 -68.46728178 15.75038336 -67.0625 14.94921875 C-46.66844999 3.76890919 -22.9273681 0.02883279 0 0 Z " fill="#2893D2" transform="translate(512.5625,110.625)"/>
<path d="M0 0 C9.57 0 19.14 0 29 0 C30.99922171 5.33125789 32.87331438 10.58954407 34.5234375 16.0234375 C34.75149078 16.76848541 34.97954407 17.51353333 35.21450806 18.28115845 C35.69470131 19.85226226 36.17363717 21.4237509 36.65136719 22.99560547 C37.36296235 25.3354187 38.07959501 27.67364288 38.796875 30.01171875 C40.7352779 36.35775421 42.66264032 42.70059453 44.39550781 49.10644531 C44.61953278 49.93318756 44.84355774 50.75992981 45.07437134 51.61172485 C45.50020026 53.19658316 45.91989666 54.78310551 46.33261108 56.37142944 C47.41046271 60.5891846 47.41046271 60.5891846 50 64 C50.29132813 63.04222656 50.58265625 62.08445312 50.8828125 61.09765625 C53.10436709 53.86013299 55.42990858 46.68421003 58 39.5625 C60.79293457 31.79532039 63.14749517 23.93810115 65.42089844 16.00585938 C66.33804175 12.82911001 67.28974134 9.66401773 68.25 6.5 C68.72179688 4.93765625 68.72179688 4.93765625 69.203125 3.34375 C70 1 70 1 71 0 C72.99964982 -0.08758003 75.0023611 -0.10696576 77.00390625 -0.09765625 C78.21884766 -0.09443359 79.43378906 -0.09121094 80.68554688 -0.08789062 C81.96494141 -0.07951172 83.24433594 -0.07113281 84.5625 -0.0625 C85.84576172 -0.05798828 87.12902344 -0.05347656 88.45117188 -0.04882812 C91.63416022 -0.03699545 94.81705762 -0.02051068 98 0 C100.03168743 5.99780067 102.01928887 12.00287246 103.859375 18.0625 C105.50585215 23.46268728 107.24387283 28.82753648 109.015625 34.1875 C109.54952626 35.80857824 110.08338 37.42967213 110.6171875 39.05078125 C111.43876773 41.54468753 112.26258233 44.03775427 113.09277344 46.52880859 C113.90718068 48.97535637 114.71219427 51.42482923 115.515625 53.875 C115.8905307 54.98911255 115.8905307 54.98911255 116.27301025 56.12573242 C117.48616106 59.85278278 118.30631771 63.06988597 118 67 C118.66 67 119.32 67 120 67 C120.12955078 66.17822266 120.12955078 66.17822266 120.26171875 65.33984375 C121.30536844 59.45136155 122.95464178 53.94287709 124.90332031 48.29345703 C126.76183825 42.84759836 128.37737365 37.35061745 129.9375 31.8125 C132.01704069 24.44438464 134.1278233 17.08772901 136.3125 9.75 C136.56700928 8.88608643 136.82151855 8.02217285 137.08374023 7.13208008 C138.88238408 1.11761592 138.88238408 1.11761592 140 0 C142.07262076 -0.08767112 144.14820294 -0.10695873 146.22265625 -0.09765625 C147.48271484 -0.09443359 148.74277344 -0.09121094 150.04101562 -0.08789062 C151.38151109 -0.07953403 152.72200588 -0.07106907 154.0625 -0.0625 C155.40689942 -0.0574866 156.7513006 -0.05292342 158.09570312 -0.04882812 C161.39717941 -0.03699488 164.69856803 -0.02050971 168 0 C166.30969303 8.72670112 163.51317456 17.06938179 160.75 25.5 C160.22328142 27.11717907 159.69658927 28.73436675 159.16992188 30.3515625 C154.49320958 44.66640525 149.63562192 58.91935051 144.72167969 73.15429688 C144.29414398 74.39596619 144.29414398 74.39596619 143.85797119 75.66271973 C143.33429464 77.18283154 142.8089119 78.70235753 142.28118896 80.22106934 C140.02404475 86.77523374 138.04293595 93.36045817 136 100 C125.44 100 114.88 100 104 100 C102.4325 95.50375 100.865 91.0075 99.25 86.375 C98.52151855 84.29517822 98.52151855 84.29517822 97.77832031 82.17333984 C95.24873284 74.87581958 92.95489574 67.56395226 90.87988281 60.12060547 C89.57437484 55.49047149 88.09247235 50.92212402 86.58203125 46.35546875 C85.50941695 43.01770624 85 40.55448928 85 37 C84.34 37 83.68 37 83 37 C82.9175 37.88171875 82.835 38.7634375 82.75 39.671875 C81.88045228 45.7043623 79.83337373 51.45626303 78 57.25 C77.60081206 58.52362499 77.20180763 59.79730752 76.80297852 61.07104492 C72.70604805 74.10462085 68.36190923 87.05274561 64 100 C53.77 100 43.54 100 33 100 C27.80035996 87.17422124 23.32261191 74.19178586 18.99243164 61.05493164 C18.52236299 59.62904764 18.05223061 58.20318465 17.58203125 56.77734375 C17.35504044 56.08880814 17.12804962 55.40027252 16.8941803 54.69087219 C15.21076474 49.5997691 13.45013082 44.54171627 11.625 39.5 C9.42961671 33.41430808 7.5426497 27.26798124 5.76342773 21.05029297 C4.24304088 15.74545813 2.53356066 10.52607332 0.69921875 5.3203125 C0 3 0 3 0 0 Z " fill="#0B185B" transform="translate(1475,211)"/>
<path d="M0 0 C9.95304652 7.60536465 17.22870896 17.87845725 19.375 30.375 C19.58572884 33.81076549 19.56009828 37.24584221 19.5625 40.6875 C19.57474609 41.59951172 19.58699219 42.51152344 19.59960938 43.45117188 C19.62825562 56.7716774 14.88086782 68.62418755 5.63671875 78.34375 C-9.55581085 91.98816346 -26.2063901 93.14116184 -45.70068359 92.54980469 C-58.1379046 91.80635418 -69.60615941 85.35253972 -78.06640625 76.32421875 C-89.07330765 62.55869544 -90.82601299 48.48043573 -89.625 31.375 C-87.48643933 19.11799225 -81.32770619 8.20867569 -71.625 0.375 C-50.03030098 -14.29643262 -21.84814287 -14.91555908 0 0 Z " fill="#0A165B" transform="translate(1447.625,219.625)"/>
<path d="M0 0 C0.63550781 0.43957031 1.27101563 0.87914062 1.92578125 1.33203125 C11.42804746 8.64308752 15.72449632 19.62248159 18 31 C18 37.6 18 44.2 18 51 C-6.42 51 -30.84 51 -56 51 C-50.44303827 62.28952117 -50.44303827 62.28952117 -40.24609375 68.5 C-29.12855521 70.97486075 -18.63646562 68.91454841 -9.078125 63.12109375 C-6.95481083 61.97562163 -5.41122244 61.19406217 -3 61 C-1.32421875 62.22265625 -1.32421875 62.22265625 0.3125 64.0625 C3.67171047 67.68346713 7.2124468 70.83082284 11 74 C7.80587022 81.39259935 1.0219438 85.84936792 -6.1875 88.875 C-8.11404585 89.61260658 -10.05179079 90.32167615 -12 91 C-12.92594971 91.34313232 -13.85189941 91.68626465 -14.8059082 92.03979492 C-27.05695812 95.72269482 -44.50089442 94.72723813 -56.1953125 89.55078125 C-60.77147027 87.02051017 -64.97206097 84.34094763 -69 81 C-69.64582031 80.46632813 -70.29164063 79.93265625 -70.95703125 79.3828125 C-76.05136987 74.74352373 -78.97256704 69.12047592 -82 63 C-82.36222656 62.3090625 -82.72445312 61.618125 -83.09765625 60.90625 C-88.60540426 49.27083429 -87.01438292 33.81762162 -83 22 C-76.7205216 7.73687796 -66.93847333 -0.95653348 -52.625 -7 C-34.96667989 -13.72697909 -15.34248151 -10.78046931 0 0 Z " fill="#0C185D" transform="translate(978,219)"/>
<path d="M0 0 C32.01 0 64.02 0 97 0 C97 8.25 97 16.5 97 25 C75.22 25 53.44 25 31 25 C31 35.89 31 46.78 31 58 C50.47 58 69.94 58 90 58 C90 65.92 90 73.84 90 82 C70.53 82 51.06 82 31 82 C31 98.5 31 115 31 132 C20.77 132 10.54 132 0 132 C0 88.44 0 44.88 0 0 Z " fill="#0B175B" transform="translate(1196,179)"/>
<path d="M0 0 C9.57 0 19.14 0 29 0 C29 45.21 29 90.42 29 137 C19.43 137 9.86 137 0 137 C0 91.79 0 46.58 0 0 Z " fill="#0A165A" transform="translate(1310,173)"/>
<path d="M0 0 C2.57113111 1.62455046 4.17912847 2.66639987 6 5 C6.53965474 8.06790821 6.70970672 10.31918243 6.5859375 13.36328125 C6.57744781 14.15526413 6.56895813 14.94724701 6.56021118 15.76322937 C6.5267492 18.28106496 6.45149443 20.79564076 6.375 23.3125 C6.34489059 25.02404212 6.31751647 26.7356347 6.29296875 28.44726562 C6.22698296 32.63275733 6.12352036 36.81582698 6 41 C7.06436279 40.97905273 8.12872559 40.95810547 9.2253418 40.93652344 C13.18549066 40.86396038 17.1455811 40.81814149 21.10620117 40.78027344 C22.81821586 40.76019495 24.53016228 40.73292608 26.24194336 40.69824219 C28.70704008 40.64955599 31.1712279 40.62699427 33.63671875 40.609375 C34.39836838 40.58872986 35.16001801 40.56808472 35.94474792 40.54681396 C39.68196746 40.54524657 41.79391787 40.86973991 44.98339844 42.88574219 C47 45 47 45 47.62890625 47.21875 C47.44893112 53.40142518 47.44893112 53.40142518 45.125 56.5 C41.19002573 59.2776289 38.04518118 59.13057815 33.3671875 59.09765625 C32.23943405 59.09553383 32.23943405 59.09553383 31.08889771 59.09336853 C28.6842249 59.08776465 26.27964473 59.07521157 23.875 59.0625 C22.24609509 59.0574855 20.61718873 59.0529225 18.98828125 59.04882812 C14.99215173 59.03779397 10.99609158 59.02052679 7 59 C7.02094727 59.97348389 7.04189453 60.94696777 7.06347656 61.94995117 C7.13608186 65.57463776 7.18187335 69.19926055 7.21972656 72.82446289 C7.23979558 74.39097923 7.26705751 75.95742109 7.30175781 77.52368164 C7.35048754 79.78029794 7.3730147 82.03592083 7.390625 84.29296875 C7.41127014 84.98899704 7.43191528 85.68502533 7.45318604 86.40214539 C7.45483032 89.99581935 7.08015358 91.87681281 5.10058594 94.91918945 C1.90878863 98.08093846 -0.39723906 98.21793082 -4.83203125 98.62109375 C-8.32266503 97.62107434 -10.2048535 95.01426432 -12 92 C-12.43200242 89.17609775 -12.59273105 86.99155076 -12.48828125 84.1953125 C-12.48120651 83.4713327 -12.47413177 82.74735291 -12.46684265 82.00143433 C-12.43904109 79.70820024 -12.37634075 77.41748513 -12.3125 75.125 C-12.28739822 73.56253548 -12.26458834 72.00003236 -12.24414062 70.4375 C-12.18926274 66.62404195 -12.10309912 62.81244674 -12 59 C-13.55110474 59.0314209 -13.55110474 59.0314209 -15.13354492 59.06347656 C-18.98187328 59.13605288 -22.83014154 59.18186317 -26.67895508 59.21972656 C-28.34247013 59.23980207 -30.00591496 59.26706876 -31.66918945 59.30175781 C-34.0647924 59.35045766 -36.45945992 59.37300856 -38.85546875 59.390625 C-39.96513252 59.42159271 -39.96513252 59.42159271 -41.09721375 59.45318604 C-44.788885 59.45477859 -46.812917 59.12059871 -49.9465332 57.10058594 C-53.07338926 53.9019806 -53.21952974 51.58517289 -53.62109375 47.16796875 C-52.61834024 43.66779139 -50.03395228 41.78026558 -47 40 C-44.04090852 39.56865908 -41.69192307 39.40864577 -38.7578125 39.51171875 C-37.98944061 39.51879349 -37.22106873 39.52586823 -36.42941284 39.53315735 C-33.99358583 39.56097704 -31.56012296 39.62368398 -29.125 39.6875 C-27.46617922 39.7125993 -25.80732212 39.73540961 -24.1484375 39.75585938 C-20.09805802 39.81076182 -16.04942873 39.89694093 -12 40 C-12.02094727 38.99622314 -12.04189453 37.99244629 -12.06347656 36.95825195 C-12.13606694 33.22174434 -12.18186811 29.48529863 -12.21972656 25.74829102 C-12.23979892 24.13327542 -12.2670633 22.51833211 -12.30175781 20.90356445 C-12.35047215 18.57745499 -12.37301154 16.25230907 -12.390625 13.92578125 C-12.41127014 13.20787918 -12.43191528 12.48997711 -12.45318604 11.75032043 C-12.45480378 8.10746257 -12.10047711 6.15514543 -10.10058594 3.06713867 C-6.78355114 -0.19707956 -4.61366039 -0.53234543 0 0 Z " fill="#F6FBFC" transform="translate(509,206)"/>
<path d="M0 0 C9.57 0 19.14 0 29 0 C29 32.67 29 65.34 29 99 C19.43 99 9.86 99 0 99 C0 66.33 0 33.66 0 0 Z " fill="#08145A" transform="translate(1140,211)"/>
<path d="M0 0 C2.6875 2 2.6875 2 4 4 C3.39654983 8.69297646 0.14864984 11.1403489 -3.125 14.25 C-7.56293286 18.55042116 -11.77748025 22.86289617 -15.6328125 27.70703125 C-17 29 -17 29 -20 29 C-22.13365197 26.9977845 -24.02358592 24.84046674 -25.96484375 22.65234375 C-27.8385495 20.77555206 -27.8385495 20.77555206 -30.12890625 21.00390625 C-32.50732173 22.27007733 -33.04359282 23.52928146 -34 26 C-31.69732351 28.69462142 -29.35994259 31.35539507 -27 34 C-26.37867188 34.70125 -25.75734375 35.4025 -25.1171875 36.125 C-24.22386719 37.0840625 -24.22386719 37.0840625 -23.3125 38.0625 C-22.77238281 38.65160156 -22.23226562 39.24070313 -21.67578125 39.84765625 C-20.07475461 41.22160837 -20.07475461 41.22160837 -18.109375 40.765625 C-15.62822984 39.8650612 -14.42033667 38.7791114 -12.57421875 36.90234375 C-11.94555908 36.26917236 -11.31689941 35.63600098 -10.66918945 34.98364258 C-10.01523193 34.30841553 -9.36127441 33.63318848 -8.6875 32.9375 C-8.01614014 32.25518311 -7.34478027 31.57286621 -6.65307617 30.86987305 C-2.26614149 26.3846317 1.94140666 21.78422063 6 17 C8.3125 14.5 8.3125 14.5 10 13 C10.66 13 11.32 13 12 13 C15.09868758 21.32772286 15.50159337 31.4517047 12.234375 39.8046875 C7.4504212 48.3128585 0.81620023 53.84751572 -8.375 56.75 C-19.23423652 57.784213 -27.23772295 56.39478446 -35.875 49.3125 C-42.58404846 42.97090826 -45.07138872 35.05293347 -45.4375 26 C-45.35322133 17.66577595 -42.56721332 11.14305279 -37.13671875 4.8359375 C-26.42105563 -5.25697165 -13.01667641 -7.15794635 0 0 Z " fill="#7DBB39" transform="translate(627,141)"/>
<path d="M0 0 C4.53091554 3.82610646 8.11173309 8.33519927 10 14 C11.16641111 32.08893298 11.16641111 32.08893298 6 40 C5.4225 40.928125 4.845 41.85625 4.25 42.8125 C-2.21844886 49.10126972 -10.17543098 50.43542463 -18.89453125 50.33984375 C-25.31799912 49.63689821 -29.99444077 46.35602919 -34.375 41.75 C-40.31435403 34.06183617 -40.85100604 25.44496846 -40 16 C-38.77811926 9.43927098 -35.03549981 4.28633882 -30 0 C-20.42724726 -5.80562176 -9.50568643 -5.89544593 0 0 Z " fill="#FBFBFB" transform="translate(1427,238)"/>
<path d="M0 0 C1.18664615 0.71797078 2.35614802 1.46564436 3.5 2.25 C4.86125 3.11625 4.86125 3.11625 6.25 4 C12.44546626 10.19546626 13.7845647 17.87031029 13.82128906 26.33935547 C13.69124027 33.65196366 11.4625227 38.8533261 7.875 45.0625 C2.34689462 50.154176 -3.4860726 52.56490856 -11 52.9375 C-18.46875582 52.62043018 -24.06165828 49.94783921 -29.15625 44.46875 C-35.75914345 35.71607729 -35.6477971 25.7706894 -34.5 15.25 C-32.6286795 8.75885701 -28.1291235 3.88746328 -22.5 0.25 C-15.73314243 -3.05950513 -6.82950461 -3.30417937 0 0 Z " fill="#FBFBFB" transform="translate(1071.5,235.75)"/>
<path d="M0 0 C4.93621594 2.82997342 7.50321251 5.87443387 9.640625 11.12890625 C10.534379 16.42979204 9.62437988 20.65327394 6.640625 25.12890625 C1.93507787 29.88588012 -1.98358975 31.30359181 -8.609375 31.50390625 C-13.74035685 31.45248216 -17.16653399 31.1196798 -21.05859375 27.671875 C-24.93276377 23.07638804 -25.92943381 18.10934171 -25.7109375 12.26953125 C-24.94565173 7.60979125 -22.18247292 4.87170193 -18.796875 1.81640625 C-13.4216459 -1.9049062 -6.09704294 -2.25106056 0 0 Z " fill="#0D185C" transform="translate(1162.359375,166.87109375)"/>
<path d="M0 0 C6.09042575 5.16486386 6.95133594 7.61068756 8 16 C-6.85 16 -21.7 16 -37 16 C-34.34159292 4.03716814 -34.34159292 4.03716814 -28.2578125 -0.21875 C-19.27730765 -5.6147615 -8.84892896 -5.8229551 0 0 Z " fill="#FBFBFB" transform="translate(959,236)"/>
<path d="M0 0 C9.24 0 18.48 0 28 0 C28 0.33 28 0.66 28 1 C27.26362305 0.99887207 26.52724609 0.99774414 25.76855469 0.99658203 C22.4281057 1.00869656 19.08994226 1.0663402 15.75 1.125 C14.01169922 1.12113281 14.01169922 1.12113281 12.23828125 1.1171875 C6.38269651 1.00082335 6.38269651 1.00082335 1.31054688 3.39355469 C0.0348157 5.18786113 0.0348157 5.18786113 -1 8 C-1.625 6.25 -1.625 6.25 -2 4 C-1.34 2.68 -0.68 1.36 0 0 Z " fill="#26316E" transform="translate(1615,211)"/>
<path d="M0 0 C0.86625 0.12375 1.7325 0.2475 2.625 0.375 C2.625 0.705 2.625 1.035 2.625 1.375 C0.975 1.375 -0.675 1.375 -2.375 1.375 C-2.808125 2.303125 -2.808125 2.303125 -3.25 3.25 C-4.375 5.375 -4.375 5.375 -6.375 7.375 C-7.365 7.045 -8.355 6.715 -9.375 6.375 C-4.20576923 0.46730769 -4.20576923 0.46730769 0 0 Z " fill="#3C9FD8" transform="translate(638.375,205.625)"/>
<path d="M0 0 C0 0.99 0 1.98 0 3 C-0.7115625 3.6496875 -0.7115625 3.6496875 -1.4375 4.3125 C-3.62100982 6.6706906 -3.65266951 8.87402561 -4 12 C-4.33 12 -4.66 12 -5 12 C-5.3125 8.8125 -5.3125 8.8125 -5 5 C-2.5 2.0625 -2.5 2.0625 0 0 Z " fill="#3BA2D7" transform="translate(427,366)"/>
<path d="M0 0 C0.66 0 1.32 0 2 0 C2.66 0.99 3.32 1.98 4 3 C4.99 3.66 5.98 4.32 7 5 C6.01 5.66 5.02 6.32 4 7 C0 2.25 0 2.25 0 0 Z " fill="#19256A" transform="translate(1016,291)"/>
</svg>
