<?xml version="1.0" encoding="UTF-8"?>
<svg version="1.1" xmlns="http://www.w3.org/2000/svg" width="250" height="250">
<path d="M0 0 C1.8552832 -0.0009668 1.8552832 -0.0009668 3.74804688 -0.00195312 C5.03646484 0.01802734 6.32488281 0.03800781 7.65234375 0.05859375 C8.94462891 0.05150391 10.23691406 0.04441406 11.56835938 0.03710938 C20.96969151 0.10086384 20.96969151 0.10086384 23.46386719 1.69042969 C25.00811984 4.16685913 24.9309956 5.91326523 24.8828125 8.8203125 C24.86831055 10.36235352 24.86831055 10.36235352 24.85351562 11.93554688 C24.82837891 13.00740234 24.80324219 14.07925781 24.77734375 15.18359375 C24.75704102 16.8087793 24.75704102 16.8087793 24.73632812 18.46679688 C24.70095018 21.1437278 24.65158564 23.81966213 24.58984375 26.49609375 C25.2353418 26.4803833 25.88083984 26.46467285 26.54589844 26.44848633 C29.47712404 26.38603573 32.40820954 26.34707145 35.33984375 26.30859375 C36.355625 26.28345703 37.37140625 26.25832031 38.41796875 26.23242188 C39.39765625 26.22275391 40.37734375 26.21308594 41.38671875 26.203125 C42.28745117 26.18741455 43.18818359 26.1717041 44.11621094 26.15551758 C47.079394 26.5634963 48.42553055 27.46689588 50.58984375 29.49609375 C51.58148784 32.73165042 51.48546113 36.12540513 51.58984375 39.49609375 C51.64140625 40.67042969 51.69296875 41.84476563 51.74609375 43.0546875 C52.02582658 54.0691676 52.02582658 54.0691676 48.58984375 59.49609375 C45.64852484 60.47653339 43.7648271 60.61230577 40.703125 60.59375 C39.76533203 60.59052734 38.82753906 60.58730469 37.86132812 60.58398438 C36.39663086 60.57141602 36.39663086 60.57141602 34.90234375 60.55859375 C33.42024414 60.55182617 33.42024414 60.55182617 31.90820312 60.54492188 C29.46868901 60.53313678 27.02929686 60.51668386 24.58984375 60.49609375 C24.6055542 61.14682861 24.62126465 61.79756348 24.63745117 62.46801758 C24.69979024 65.41478799 24.73883059 68.36141973 24.77734375 71.30859375 C24.80248047 72.33275391 24.82761719 73.35691406 24.85351562 74.41210938 C24.86318359 75.39501953 24.87285156 76.37792969 24.8828125 77.390625 C24.89852295 78.29659424 24.9142334 79.20256348 24.93041992 80.13598633 C24.58984375 82.49609375 24.58984375 82.49609375 23.2980957 84.2722168 C18.40330375 87.77909004 9.72282527 86.64375373 3.83984375 86.74609375 C2.740354 86.7783606 2.740354 86.7783606 1.61865234 86.8112793 C-2.9189748 86.83873925 -5.81599202 86.32203967 -9.41015625 83.49609375 C-10.63653195 81.04334234 -10.52430939 79.44551565 -10.5078125 76.70703125 C-10.50458984 75.76601562 -10.50136719 74.825 -10.49804688 73.85546875 C-10.48966797 72.870625 -10.48128906 71.88578125 -10.47265625 70.87109375 C-10.46814453 69.87851563 -10.46363281 68.8859375 -10.45898438 67.86328125 C-10.4471777 65.40749215 -10.43071025 62.95182271 -10.41015625 60.49609375 C-11.02012451 60.51704102 -11.63009277 60.53798828 -12.25854492 60.55957031 C-15.03807919 60.64302236 -17.81734945 60.69484386 -20.59765625 60.74609375 C-21.55736328 60.77960938 -22.51707031 60.813125 -23.50585938 60.84765625 C-27.9189903 60.90873765 -30.64147458 60.93671478 -34.53125 58.70703125 C-39.04337028 53.39755083 -37.44969954 44.73159681 -37.22265625 38.12109375 C-37.19631104 36.92492432 -37.19631104 36.92492432 -37.16943359 35.70458984 C-36.88273126 29.9717632 -36.88273126 29.9717632 -34.69506836 27.76977539 C-31.96759929 26.24939863 -30.31425303 26.14892927 -27.20703125 26.203125 C-25.7375 26.21762695 -25.7375 26.21762695 -24.23828125 26.23242188 C-22.71460937 26.27012695 -22.71460937 26.27012695 -21.16015625 26.30859375 C-19.61328125 26.32889648 -19.61328125 26.32889648 -18.03515625 26.34960938 C-15.49295833 26.38491768 -12.95182402 26.43423339 -10.41015625 26.49609375 C-10.43110352 25.8505957 -10.45205078 25.20509766 -10.47363281 24.54003906 C-10.5568983 21.60888307 -10.60884831 18.67797598 -10.66015625 15.74609375 C-10.71042969 14.22242187 -10.71042969 14.22242187 -10.76171875 12.66796875 C-10.77460937 11.68828125 -10.7875 10.70859375 -10.80078125 9.69921875 C-10.82172852 8.79848633 -10.84267578 7.89775391 -10.86425781 6.96972656 C-9.73528807 0.81987632 -5.61007983 -0.00917527 0 0 Z M5.58984375 19.49609375 C3.06209024 23.28772402 3.3654134 26.30483406 3.46484375 30.68359375 C3.47386719 31.43318359 3.48289062 32.18277344 3.4921875 32.95507812 C3.51571797 34.80222029 3.55158814 36.64919787 3.58984375 38.49609375 C1.67558594 38.56957031 1.67558594 38.56957031 -0.27734375 38.64453125 C-1.94663697 38.71955566 -3.61590671 38.79510363 -5.28515625 38.87109375 C-6.54779297 38.9175 -6.54779297 38.9175 -7.8359375 38.96484375 C-8.64160156 39.00351563 -9.44726562 39.0421875 -10.27734375 39.08203125 C-11.02097168 39.11345215 -11.76459961 39.14487305 -12.53076172 39.17724609 C-14.65026599 39.35028926 -14.65026599 39.35028926 -16.41015625 41.49609375 C-16.12032356 44.80292841 -16.12032356 44.80292841 -14.41015625 47.49609375 C-13.07000404 47.65191678 -11.72256722 47.74653517 -10.375 47.8125 C-9.56611328 47.85439453 -8.75722656 47.89628906 -7.92382812 47.93945312 C-7.07369141 47.97876953 -6.22355469 48.01808594 -5.34765625 48.05859375 C-4.49365234 48.10177734 -3.63964844 48.14496094 -2.75976562 48.18945312 C-0.64343588 48.29586077 1.47318188 48.39651106 3.58984375 48.49609375 C3.56664063 49.54410156 3.5434375 50.59210938 3.51953125 51.671875 C3.50077072 53.05077412 3.48257082 54.42968095 3.46484375 55.80859375 C3.44808594 56.49888672 3.43132812 57.18917969 3.4140625 57.90039062 C3.37766581 61.66744771 3.44605511 63.28041079 5.58984375 66.49609375 C8.34625791 65.99853283 8.34625791 65.99853283 10.58984375 64.49609375 C10.66309543 61.63341808 10.6822258 58.79537475 10.65234375 55.93359375 C10.64783203 55.12728516 10.64332031 54.32097656 10.63867188 53.49023438 C10.62684893 51.49215619 10.60891289 49.49411592 10.58984375 47.49609375 C11.86601563 47.51929688 13.1421875 47.5425 14.45703125 47.56640625 C16.12629625 47.58516204 17.79556755 47.60336244 19.46484375 47.62109375 C20.72748047 47.64623047 20.72748047 47.64623047 22.015625 47.671875 C22.82128906 47.67832031 23.62695312 47.68476563 24.45703125 47.69140625 C25.20065918 47.70187988 25.94428711 47.71235352 26.71044922 47.72314453 C28.8347461 47.66265345 28.8347461 47.66265345 30.58984375 45.49609375 C30.30001106 42.18925909 30.30001106 42.18925909 28.58984375 39.49609375 C25.73106466 39.25908136 22.89101078 39.07390193 20.02734375 38.93359375 C19.22103516 38.89041016 18.41472656 38.84722656 17.58398438 38.80273438 C15.5861557 38.69634113 13.58802305 38.59568487 11.58984375 38.49609375 C11.54085937 37.29210937 11.491875 36.088125 11.44140625 34.84765625 C11.36638032 33.27211177 11.29083242 31.69659209 11.21484375 30.12109375 C11.18390625 29.32703125 11.15296875 28.53296875 11.12109375 27.71484375 C11.07167954 23.12942 11.07167954 23.12942 8.58984375 19.49609375 C7.59984375 19.49609375 6.60984375 19.49609375 5.58984375 19.49609375 Z " fill="#2590CD" transform="translate(114.41015625,81.50390625)"/>
<path d="M0 0 C3.74876968 0.61273327 4.67094426 1.58023229 7.03515625 4.49609375 C7.70417969 5.31464844 8.37320313 6.13320312 9.0625 6.9765625 C9.71347656 7.80800781 10.36445313 8.63945313 11.03515625 9.49609375 C11.65519531 10.23472656 12.27523437 10.97335938 12.9140625 11.734375 C16.08710063 15.64361688 16.08710063 15.64361688 17.03515625 17.49609375 C16.6875 19.7265625 16.6875 19.7265625 16.03515625 21.49609375 C13.39515625 21.49609375 10.75515625 21.49609375 8.03515625 21.49609375 C8.09316406 22.24890625 8.15117187 23.00171875 8.2109375 23.77734375 C8.99419692 42.2175084 0.51944823 59.04293117 -11.296875 72.83203125 C-26.40483792 87.91787416 -45.8388796 96.27519204 -67.15234375 96.68359375 C-73.883028 96.64418693 -80.35495804 95.70772583 -86.96484375 94.49609375 C-87.29484375 96.80609375 -87.62484375 99.11609375 -87.96484375 101.49609375 C-89.94484375 101.99109375 -89.94484375 101.99109375 -91.96484375 102.49609375 C-92.23296875 101.85671875 -92.50109375 101.21734375 -92.77734375 100.55859375 C-93.85152127 98.16477689 -93.85152127 98.16477689 -96.96484375 97.49609375 C-98.82618333 95.44977633 -100.52643966 93.42575666 -102.21484375 91.24609375 C-102.68664062 90.67246094 -103.1584375 90.09882813 -103.64453125 89.5078125 C-105.59877343 86.99929695 -106.89787456 85.06490804 -107.2734375 81.875 C-105.14127666 77.99892253 -101.64204998 76.61434059 -97.77734375 74.68359375 C-97.02130859 74.27689453 -96.26527344 73.87019531 -95.48632812 73.45117188 C-91.15378144 71.21538239 -87.96010598 69.96230975 -82.96484375 70.49609375 C-82.96484375 73.13609375 -82.96484375 75.77609375 -82.96484375 78.49609375 C-67.6249116 82.29713888 -51.63198916 81.01999958 -37.58984375 73.43359375 C-24.15696959 64.8166264 -13.61280172 51.58792564 -9.71484375 35.99609375 C-8.80197662 31.45578091 -8.81819337 27.11558073 -8.96484375 22.49609375 C-11.27484375 22.16609375 -13.58484375 21.83609375 -15.96484375 21.49609375 C-16.45984375 20.01109375 -16.45984375 20.01109375 -16.96484375 18.49609375 C-15.77734375 16.55078125 -15.77734375 16.55078125 -13.96484375 14.37109375 C-11.94232697 11.92236071 -9.97281101 9.50745352 -8.1484375 6.90625 C-7.57222656 6.09027344 -6.99601562 5.27429688 -6.40234375 4.43359375 C-5.88542969 3.67949219 -5.36851562 2.92539063 -4.8359375 2.1484375 C-2.96484375 0.49609375 -2.96484375 0.49609375 0 0 Z " fill="#2891CE" transform="translate(185.96484375,99.50390625)"/>
<path d="M0 0 C5.47241948 -0.20942703 10.66683541 0.50852962 16.03515625 1.47265625 C17.04557983 1.64909668 17.04557983 1.64909668 18.07641602 1.82910156 C22.38770318 2.66289075 26.00047135 3.92948591 29.78515625 6.16015625 C31.2294648 9.04877334 31.16204131 10.95663326 30.78515625 14.16015625 C28.84765625 17.09765625 28.84765625 17.09765625 25.78515625 19.16015625 C22.03488604 19.36702169 18.53104021 18.64549407 14.92944336 17.64428711 C1.02985194 14.50607809 -15.0522134 16.99258456 -27.40234375 23.78515625 C-41.89641346 33.26480316 -50.83099161 45.50005925 -55.21484375 62.16015625 C-56.28477148 67.78360439 -56.80535598 73.45556804 -57.21484375 79.16015625 C-54.24484375 79.16015625 -51.27484375 79.16015625 -48.21484375 79.16015625 C-48.68297436 84.44483066 -51.49512334 88.15082938 -54.40234375 92.41015625 C-54.87220703 93.14234375 -55.34207031 93.87453125 -55.82617188 94.62890625 C-59.39470888 99.88677796 -59.39470888 99.88677796 -63.42578125 101.23046875 C-67.38966689 101.13053886 -68.44169109 100.00094678 -71.21484375 97.16015625 C-73.05405042 94.92564498 -74.82689628 92.65676653 -76.56640625 90.34375 C-77.87237343 88.61380769 -79.25062447 86.93846618 -80.65234375 85.28515625 C-82.21484375 83.16015625 -82.21484375 83.16015625 -82.21484375 80.16015625 C-79.57484375 79.83015625 -76.93484375 79.50015625 -74.21484375 79.16015625 C-74.15014893 78.53149658 -74.0854541 77.90283691 -74.01879883 77.25512695 C-71.39979207 52.67692876 -64.19434095 32.52323013 -44.78125 16.1015625 C-31.26983334 6.13994332 -16.606435 1.20081805 0 0 Z " fill="#298ECA" transform="translate(122.21484375,52.83984375)"/>
<path d="M0 0 C5.47241948 -0.20942703 10.66683541 0.50852962 16.03515625 1.47265625 C17.04557983 1.64909668 17.04557983 1.64909668 18.07641602 1.82910156 C22.38770318 2.66289075 26.00047135 3.92948591 29.78515625 6.16015625 C31.18973362 8.96931099 31.03410782 11.04826159 30.78515625 14.16015625 C29.72265625 16.53515625 29.72265625 16.53515625 27.78515625 18.16015625 C22.9738445 18.70483305 19.26523423 17.90847937 14.78515625 16.16015625 C14.78515625 15.83015625 14.78515625 15.50015625 14.78515625 15.16015625 C11.13939233 15.10137548 7.49375273 15.06630045 3.84765625 15.03515625 C2.3152832 15.01001953 2.3152832 15.01001953 0.75195312 14.984375 C-6.05603234 14.9408735 -13.00243613 15.05395244 -19.21484375 18.16015625 C-19.21484375 17.50015625 -19.21484375 16.84015625 -19.21484375 16.16015625 C-22.33681853 17.46911345 -22.33681853 17.46911345 -24.21484375 20.16015625 C-26.53640972 20.56744853 -28.87172245 20.90454302 -31.21484375 21.16015625 C-31.21484375 22.15015625 -31.21484375 23.14015625 -31.21484375 24.16015625 C-34.4427593 26.31209995 -35.49885184 26.36102068 -39.21484375 26.16015625 C-39.21484375 27.48015625 -39.21484375 28.80015625 -39.21484375 30.16015625 C-40.4566107 30.86241766 -41.70869974 31.54644734 -42.96484375 32.22265625 C-43.6609375 32.60550781 -44.35703125 32.98835938 -45.07421875 33.3828125 C-47.62130072 34.3077565 -48.75274604 34.26385523 -51.21484375 33.16015625 C-52.46484375 30.09765625 -52.46484375 30.09765625 -53.21484375 27.16015625 C-51.89484375 27.16015625 -50.57484375 27.16015625 -49.21484375 27.16015625 C-48.90546875 26.54140625 -48.59609375 25.92265625 -48.27734375 25.28515625 C-47.58984375 23.91015625 -46.90234375 22.53515625 -46.21484375 21.16015625 C-45.55484375 21.16015625 -44.89484375 21.16015625 -44.21484375 21.16015625 C-44.54484375 19.84015625 -44.87484375 18.52015625 -45.21484375 17.16015625 C-32.08605781 6.02922904 -16.90422763 1.22235156 0 0 Z " fill="#2891D0" transform="translate(122.21484375,52.83984375)"/>
<path d="M0 0 C0.75023437 0.04382813 1.50046875 0.08765625 2.2734375 0.1328125 C4.625 0.875 4.625 0.875 9.625 5.875 C5.995 9.835 2.365 13.795 -1.375 17.875 C-3.355 17.215 -5.335 16.555 -7.375 15.875 C-6.055 17.525 -4.735 19.175 -3.375 20.875 C-0.01297061 19.44890841 1.86175579 17.73151485 4.1875 14.9375 C8.65014828 9.62009057 8.65014828 9.62009057 10.625 7.875 C11.285 7.875 11.945 7.875 12.625 7.875 C15.21248555 12.593356 14.84312839 16.79647945 13.625 21.875 C11.68085468 25.91284029 10.26014442 27.50857053 6.375 29.75 C0.38328517 31.54751445 -4.0258781 31.73834064 -9.6875 29.1875 C-13.12393484 27.24692503 -14.94384904 25.66334077 -16.375 21.875 C-17.47997979 17.2549664 -17.60697199 13.74489496 -16.375 9.125 C-12.67743042 3.11644944 -7.21339062 -0.56623885 0 0 Z " fill="#7BAF40" transform="translate(174.375,66.125)"/>
<path d="M0 0 C1.32 0.33 2.64 0.66 4 1 C3.67 1.99 3.34 2.98 3 4 C2.34 4 1.68 4 1 4 C1 4.66 1 5.32 1 6 C3.97 6.495 3.97 6.495 7 7 C6.67 7.99 6.34 8.98 6 10 C4.68 9.67 3.36 9.34 2 9 C2 10.98 2 12.96 2 15 C0.08654673 15.53251766 -1.8309295 16.05059483 -3.75 16.5625 C-4.81734375 16.85253906 -5.8846875 17.14257812 -6.984375 17.44140625 C-9.84335927 17.97098494 -11.31597383 17.98370862 -14 17 C-13.67 16.34 -13.34 15.68 -13 15 C-13.66 15 -14.32 15 -15 15 C-15 13.68 -15 12.36 -15 11 C-16.65 10.67 -18.3 10.34 -20 10 C-17.50936335 8.33957556 -15.74823602 7.44675832 -12.98828125 6.4921875 C-12.23095703 6.22792969 -11.47363281 5.96367187 -10.69335938 5.69140625 C-9.51483398 5.28728516 -9.51483398 5.28728516 -8.3125 4.875 C-7.51521484 4.59785156 -6.71792969 4.32070312 -5.89648438 4.03515625 C-3.93230048 3.3529846 -1.96632027 2.67598902 0 2 C0 1.34 0 0.68 0 0 Z " fill="#2693D2" transform="translate(154,171)"/>
<path d="M0 0 C1.63098633 -0.01160156 1.63098633 -0.01160156 3.29492188 -0.0234375 C4.33068359 -0.02085938 5.36644531 -0.01828125 6.43359375 -0.015625 C7.37130615 -0.01336914 8.30901855 -0.01111328 9.27514648 -0.00878906 C11.5625 0.25 11.5625 0.25 13.5625 2.25 C15.52940374 2.92292501 15.52940374 2.92292501 17.6875 3.375 C18.96625 3.66375 20.245 3.9525 21.5625 4.25 C21.5625 4.58 21.5625 4.91 21.5625 5.25 C20.14547487 5.10769192 18.7288904 4.96099254 17.3125 4.8125 C16.12914062 4.69068359 16.12914062 4.69068359 14.921875 4.56640625 C12.5625 4.25 12.5625 4.25 10.69580078 3.74511719 C-3.14860462 0.53197297 -19.32625725 3.11069149 -31.625 9.875 C-39.84895406 15.23549811 -47.19196195 21.92949138 -52.4375 30.25 C-52.9909764 28.17446352 -53.4375 26.40634036 -53.4375 24.25 C-52.7775 24.25 -52.1175 24.25 -51.4375 24.25 C-51.1075 22.93 -50.7775 21.61 -50.4375 20.25 C-49.1175 20.25 -47.7975 20.25 -46.4375 20.25 C-46.4375 19.26 -46.4375 18.27 -46.4375 17.25 C-44.4375 15.0625 -44.4375 15.0625 -42.4375 13.25 C-43.0975 12.92 -43.7575 12.59 -44.4375 12.25 C-41.4375 11.25 -41.4375 11.25 -39.375 10.9375 C-37.23628028 10.40861061 -37.23628028 10.40861061 -36.1875 8.1875 C-35.94 7.548125 -35.6925 6.90875 -35.4375 6.25 C-33.1275 6.25 -30.8175 6.25 -28.4375 6.25 C-27.7775 4.93 -27.1175 3.61 -26.4375 2.25 C-25.798125 2.435625 -25.15875 2.62125 -24.5 2.8125 C-23.819375 2.956875 -23.13875 3.10125 -22.4375 3.25 C-22.1075 2.92 -21.7775 2.59 -21.4375 2.25 C-14.21873706 0.25347939 -7.46368787 -0.05444636 0 0 Z " fill="#2C7DA9" transform="translate(126.4375,66.75)"/>
<path d="M0 0 C0.99 0 1.98 0 3 0 C2.67 5.28 2.34 10.56 2 16 C4.97 16 7.94 16 11 16 C10.55902738 21.33366887 7.60422259 25.00269806 4.625 29.25 C4.13 29.9821875 3.635 30.714375 3.125 31.46875 C-0.6176264 36.87254213 -0.6176264 36.87254213 -4 38 C-4 36.35 -4 34.7 -4 33 C-2.02 32.505 -2.02 32.505 0 32 C-0.33 31.01 -0.66 30.02 -1 29 C-0.01 29 0.98 29 2 29 C2.0825 28.278125 2.165 27.55625 2.25 26.8125 C3.14750201 23.44686746 4.7114278 21.58387184 7 19 C4.69 18.34 2.38 17.68 0 17 C0 11.39 0 5.78 0 0 Z " fill="#286486" transform="translate(63,116)"/>
<path d="M0 0 C1.32 0 2.64 0 4 0 C3.5547115 5.27315333 2.91626837 10.01770224 1 15 C-4.75 15.125 -4.75 15.125 -7 14 C-7 14.99 -7 15.98 -7 17 C-7.99 17 -8.98 17 -10 17 C-9.6875 14.625 -9.6875 14.625 -9 12 C-8.01 11.34 -7.02 10.68 -6 10 C-5.67 9.01 -5.34 8.02 -5 7 C-4.34 7 -3.68 7 -3 7 C-2.67 6.01 -2.34 5.02 -2 4 C-1.34870203 2.65909241 -0.68486725 1.32407669 0 0 Z " fill="#7BB935" transform="translate(183,77)"/>
<path d="M0 0 C1.30130859 -0.020625 2.60261719 -0.04125 3.94335938 -0.0625 C5.18794922 -0.06765625 6.43253906 -0.0728125 7.71484375 -0.078125 C8.85945068 -0.0874707 10.00405762 -0.09681641 11.18334961 -0.10644531 C14.0625 0.25 14.0625 0.25 15.94091797 1.43774414 C17.47638878 3.91876282 17.40364828 5.66738712 17.35546875 8.57421875 C17.3409668 10.11625977 17.3409668 10.11625977 17.32617188 11.68945312 C17.30103516 12.76130859 17.27589844 13.83316406 17.25 14.9375 C17.22969727 16.56268555 17.22969727 16.56268555 17.20898438 18.22070312 C17.17360643 20.89763405 17.12424189 23.57356838 17.0625 26.25 C16.4025 26.25 15.7425 26.25 15.0625 26.25 C15.03744385 25.59926514 15.0123877 24.94853027 14.98657227 24.27807617 C14.87056298 21.33101954 14.74785885 18.3842787 14.625 15.4375 C14.58568359 14.41333984 14.54636719 13.38917969 14.50585938 12.33398438 C14.46396484 11.35107422 14.42207031 10.36816406 14.37890625 9.35546875 C14.34224854 8.44949951 14.30559082 7.54353027 14.26782227 6.61010742 C14.1416795 4.09951218 14.1416795 4.09951218 13.0625 1.25 C8.81196736 1.35988136 4.56231965 1.49051204 0.3125 1.625 C-1.49734375 1.67140625 -1.49734375 1.67140625 -3.34375 1.71875 C-4.50390625 1.75742188 -5.6640625 1.79609375 -6.859375 1.8359375 C-7.92768555 1.8673584 -8.99599609 1.8987793 -10.09667969 1.93115234 C-12.86623598 2.24200148 -14.57033621 2.82670532 -16.9375 4.25 C-16.6075 3.26 -16.2775 2.27 -15.9375 1.25 C-11.36536761 -1.03606619 -5.01983247 0.01983144 0 0 Z " fill="#276A8D" transform="translate(121.9375,81.75)"/>
<path d="M0 0 C3.48245272 0.74094739 4.72241987 1.89874753 6.9375 4.625 C6.6075 5.615 6.2775 6.605 5.9375 7.625 C4.9475 7.955 3.9575 8.285 2.9375 8.625 C2.6075 6.975 2.2775 5.325 1.9375 3.625 C0.9475 3.955 -0.0425 4.285 -1.0625 4.625 C-1.79573796 6.64008358 -1.79573796 6.64008358 -2.0625 8.625 C-3.3825 8.625 -4.7025 8.625 -6.0625 8.625 C-6.3925 9.615 -6.7225 10.605 -7.0625 11.625 C-9.125 12.3125 -9.125 12.3125 -11.0625 12.625 C-5.89547645 1.20315846 -5.89547645 1.20315846 0 0 Z " fill="#2A88B9" transform="translate(186.0625,99.375)"/>
<path d="M0 0 C1.63098633 -0.01160156 1.63098633 -0.01160156 3.29492188 -0.0234375 C4.33068359 -0.02085938 5.36644531 -0.01828125 6.43359375 -0.015625 C7.37130615 -0.01336914 8.30901855 -0.01111328 9.27514648 -0.00878906 C11.5625 0.25 11.5625 0.25 13.5625 2.25 C15.52940374 2.92292501 15.52940374 2.92292501 17.6875 3.375 C18.96625 3.66375 20.245 3.9525 21.5625 4.25 C21.5625 4.58 21.5625 4.91 21.5625 5.25 C20.14547487 5.10769192 18.7288904 4.96099254 17.3125 4.8125 C16.12914062 4.69068359 16.12914062 4.69068359 14.921875 4.56640625 C12.5625 4.25 12.5625 4.25 10.70239258 3.74072266 C6.69861123 2.82257086 2.59025841 3.05964641 -1.5 3.0625 C-2.43996826 3.06185547 -3.37993652 3.06121094 -4.34838867 3.06054688 C-10.87641622 3.11021972 -17.09703064 3.58692607 -23.4375 5.25 C-21.27980416 2.01345624 -21.11323685 1.82603992 -17.58984375 1.078125 C-11.74361076 -0.05060895 -5.93526985 -0.0432968 0 0 Z " fill="#2F81B0" transform="translate(126.4375,66.75)"/>
<path d="M0 0 C0.66 0 1.32 0 2 0 C1.67 2.97 1.34 5.94 1 9 C-0.32 9.33 -1.64 9.66 -3 10 C-3.33 11.65 -3.66 13.3 -4 15 C-5.32 15.33 -6.64 15.66 -8 16 C-8 18.31 -8 20.62 -8 23 C-10.31 23 -12.62 23 -15 23 C-14.0843974 21.77004051 -13.16745797 20.54107614 -12.25 19.3125 C-11.69957031 18.57386719 -11.14914063 17.83523437 -10.58203125 17.07421875 C-9.41939517 15.54987366 -8.19453026 14.07248939 -6.9375 12.625 C-4.05036319 8.71339529 -2.07665564 4.38310515 0 0 Z " fill="#317DA8" transform="translate(175,141)"/>
<path d="M0 0 C0.33 0.99 0.66 1.98 1 3 C-0.51421001 4.51421001 -1.92472768 4.21309856 -4.03515625 4.31640625 C-5.24848633 4.37924805 -5.24848633 4.37924805 -6.48632812 4.44335938 C-7.7615332 4.50233398 -7.7615332 4.50233398 -9.0625 4.5625 C-9.91650391 4.60568359 -10.77050781 4.64886719 -11.65039062 4.69335938 C-13.76672037 4.79976702 -15.88333813 4.90041731 -18 5 C-18.33 6.65 -18.66 8.3 -19 10 C-20.32 10.33 -21.64 10.66 -23 11 C-23.89674777 8.48910624 -24.13172674 7.35464891 -23.1875 4.8125 C-22 3 -22 3 -20 2 C-18.47851674 1.91627341 -16.95344222 1.89269973 -15.4296875 1.90234375 C-14.53378906 1.90556641 -13.63789062 1.90878906 -12.71484375 1.91210938 C-11.77769531 1.92048828 -10.84054688 1.92886719 -9.875 1.9375 C-8.93011719 1.94201172 -7.98523438 1.94652344 -7.01171875 1.95117188 C-4.67441613 1.96297643 -2.33723939 1.97944241 0 2 C0 1.34 0 0.68 0 0 Z " fill="#3280A8" transform="translate(118,117)"/>
<path d="M0 0 C1.875 0.3125 1.875 0.3125 4 1 C4.66 1.99 5.32 2.98 6 4 C5.01 4.33 4.02 4.66 3 5 C2.67 6.65 2.34 8.3 2 10 C1.34 10 0.68 10 0 10 C0 10.99 0 11.98 0 13 C-1.32 12.67 -2.64 12.34 -4 12 C-4.25 5.375 -4.25 5.375 -2 2 C-1.67 2.66 -1.34 3.32 -1 4 C-0.67 2.68 -0.34 1.36 0 0 Z " fill="#7CBA38" transform="translate(174,69)"/>
<path d="M0 0 C1.98 0 3.96 0 6 0 C4.68 0.33 3.36 0.66 2 1 C2.11859375 2.12019531 2.2371875 3.24039063 2.359375 4.39453125 C2.49068594 5.86708959 2.62083379 7.33975198 2.75 8.8125 C2.83121094 9.55048828 2.91242188 10.28847656 2.99609375 11.04882812 C3.171875 13.20703125 3.171875 13.20703125 3 17 C1.01703055 19.30745536 -0.15095809 19.88379901 -3.140625 20.29296875 C-5.09375 20.1953125 -7.046875 20.09765625 -9 20 C-9 18.35 -9 16.7 -9 15 C-8.34 14.67 -7.68 14.34 -7 14 C-6.34 15.32 -5.68 16.64 -5 18 C-3.68 17.67 -2.36 17.34 -1 17 C-0.67 11.39 -0.34 5.78 0 0 Z " fill="#30769B" transform="translate(125,129)"/>
<path d="M0 0 C0 2.31 0 4.62 0 7 C-0.33 7 -0.66 7 -1 7 C-1 5.02 -1 3.04 -1 1 C-1.99 1.495 -1.99 1.495 -3 2 C-3 2.99 -3 3.98 -3 5 C-5.97 5 -8.94 5 -12 5 C-12.66 6.65 -13.32 8.3 -14 10 C-16.31 10 -18.62 10 -21 10 C-19.80194275 6.40582825 -18.4952657 5.9111833 -15.22851562 4.24804688 C-14.59623047 3.93931641 -13.96394531 3.63058594 -13.3125 3.3125 C-12.69955078 2.99216797 -12.08660156 2.67183594 -11.45507812 2.34179688 C-7.47107362 0.36035667 -4.43186729 -0.36081254 0 0 Z " fill="#2B74A1" transform="translate(103,170)"/>
<path d="M0 0 C0.66 0 1.32 0 2 0 C4.58246969 4.70920943 4.23165784 8.93056772 3 14 C1.11163078 17.70929669 -0.02060223 19.51030112 -3.75 21.375 C-4.4925 21.58125 -5.235 21.7875 -6 22 C-6 21.34 -6 20.68 -6 20 C-6.66 19.67 -7.32 19.34 -8 19 C-4.535 18.505 -4.535 18.505 -1 18 C-0.86722656 17.08476563 -0.73445312 16.16953125 -0.59765625 15.2265625 C-0.42105469 14.03804687 -0.24445313 12.84953125 -0.0625 11.625 C0.11152344 10.44164063 0.28554687 9.25828125 0.46484375 8.0390625 C1 5 1 5 2 3 C0.68 2.67 -0.64 2.34 -2 2 C-1.34 1.34 -0.68 0.68 0 0 Z " fill="#587331" transform="translate(185,74)"/>
<path d="M0 0 C1.69393215 1.64553409 3.35732623 3.30419392 5 5 C5.48855469 5.50402344 5.97710937 6.00804688 6.48046875 6.52734375 C7.875 8.0625 7.875 8.0625 10 11 C9.8125 13.375 9.8125 13.375 9 15 C6.36 15 3.72 15 1 15 C1 15.66 1 16.32 1 17 C-0.32 16.67 -1.64 16.34 -3 16 C-0.44931155 13.64551835 0.71017358 13.01672076 4.25 12.8125 C5.1575 12.874375 6.065 12.93625 7 13 C7 12.01 7 11.02 7 10 C6.01 9.67 5.02 9.34 4 9 C4 8.01 4 7.02 4 6 C3.34 6 2.68 6 2 6 C1.34 4.02 0.68 2.04 0 0 Z " fill="#33749B" transform="translate(193,106)"/>
<path d="M0 0 C0.66 0.33 1.32 0.66 2 1 C1.67 1.99 1.34 2.98 1 4 C0.86641049 5.37170256 0.77674074 6.74802827 0.71875 8.125 C0.68136719 8.91390625 0.64398438 9.7028125 0.60546875 10.515625 C0.57066406 11.33546875 0.53585938 12.1553125 0.5 13 C0.43100688 14.62517131 0.35824272 16.25018802 0.28125 17.875 C0.25095703 18.59429687 0.22066406 19.31359375 0.18945312 20.0546875 C0 22 0 22 -1 25 C-1.66 25 -2.32 25 -3 25 C-2.89047884 21.20771856 -2.75976759 17.4164616 -2.625 13.625 C-2.5940625 12.54476562 -2.563125 11.46453125 -2.53125 10.3515625 C-2.49257812 9.3203125 -2.45390625 8.2890625 -2.4140625 7.2265625 C-2.3826416 6.27346191 -2.3512207 5.32036133 -2.31884766 4.33837891 C-2 2 -2 2 0 0 Z " fill="#2D7EA9" transform="translate(80,109)"/>
<path d="M0 0 C0.66 0 1.32 0 2 0 C1.49592152 4.65250817 0.3516208 7.52169176 -2.375 11.3125 C-2.98085937 12.17488281 -3.58671875 13.03726563 -4.2109375 13.92578125 C-6 16 -6 16 -9 17 C-9 15.35 -9 13.7 -9 12 C-7.68 11.67 -6.36 11.34 -5 11 C-5.33 10.01 -5.66 9.02 -6 8 C-5.01 8 -4.02 8 -3 8 C-2.814375 6.8553125 -2.814375 6.8553125 -2.625 5.6875 C-2 3 -2 3 0 0 Z " fill="#2D729C" transform="translate(68,137)"/>
<path d="M0 0 C0.66 0 1.32 0 2 0 C2.44032071 7.51806849 1.28612778 13.84224277 -1 21 C-1.33 21 -1.66 21 -2 21 C-1.86179731 17.6871348 -1.71316222 14.37482011 -1.5625 11.0625 C-1.52318359 10.11697266 -1.48386719 9.17144531 -1.44335938 8.19726562 C-1.40146484 7.29814453 -1.35957031 6.39902344 -1.31640625 5.47265625 C-1.27974854 4.64000244 -1.24309082 3.80734863 -1.20532227 2.94946289 C-1 1 -1 1 0 0 Z " fill="#2C6587" transform="translate(192,124)"/>
<path d="M0 0 C0.33 0 0.66 0 1 0 C1.33 4.29 1.66 8.58 2 13 C1.34 13 0.68 13 0 13 C-0.33 13.99 -0.66 14.98 -1 16 C-1.66 16 -2.32 16 -3 16 C-3.37851209 10.06997733 -2.10575375 5.52760359 0 0 Z " fill="#327FAB" transform="translate(54,100)"/>
<path d="M0 0 C0.99 0.33 1.98 0.66 3 1 C2.55269531 1.42410156 2.10539062 1.84820312 1.64453125 2.28515625 C-2.44951902 6.25699606 -5.813901 10.26912573 -9 15 C-9.5534764 12.92446352 -10 11.15634036 -10 9 C-9.34 9 -8.68 9 -8 9 C-7.67 7.68 -7.34 6.36 -7 5 C-5.68 5 -4.36 5 -3 5 C-3 4.01 -3 3.02 -3 2 C-2.01 1.34 -1.02 0.68 0 0 Z " fill="#28658B" transform="translate(83,82)"/>
<path d="M0 0 C1.32 0.66 2.64 1.32 4 2 C3.60000283 4.31998359 3.09432121 5.86323424 1.75 7.8125 C0 9 0 9 -2.6875 8.6875 C-3.450625 8.460625 -4.21375 8.23375 -5 8 C-5.33 8.99 -5.66 9.98 -6 11 C-6.33 11 -6.66 11 -7 11 C-7 9.35 -7 7.7 -7 6 C-5.02 5.67 -3.04 5.34 -1 5 C-0.67 3.35 -0.34 1.7 0 0 Z " fill="#2893D5" transform="translate(167,158)"/>
<path d="M0 0 C0.99 0.33 1.98 0.66 3 1 C4.1875 4.5625 4.1875 4.5625 5 8 C-2.42857143 9.28571429 -2.42857143 9.28571429 -6 8 C-6 7.34 -6 6.68 -6 6 C-5.38125 5.938125 -4.7625 5.87625 -4.125 5.8125 C-1.72238859 5.171081 -1.72238859 5.171081 -0.75 2.4375 C-0.5025 1.633125 -0.255 0.82875 0 0 Z " fill="#2793D5" transform="translate(186,102)"/>
<path d="M0 0 C1.32 0.33 2.64 0.66 4 1 C4.33 6.94 4.66 12.88 5 19 C4.01 19 3.02 19 2 19 C1.93941406 17.79601562 1.87882812 16.59203125 1.81640625 15.3515625 C1.73200268 13.77602923 1.64735459 12.20050904 1.5625 10.625 C1.50352539 9.43390625 1.50352539 9.43390625 1.44335938 8.21875 C1.31106596 3.97398779 1.31106596 3.97398779 0 0 Z " fill="#2F779F" transform="translate(123,101)"/>
<path d="M0 0 C0.66 0 1.32 0 2 0 C2 1.32 2 2.64 2 4 C2.66 4 3.32 4 4 4 C4 4.66 4 5.32 4 6 C5.32 5.67 6.64 5.34 8 5 C9.4216319 8.3171411 10.39009109 11.44219804 11 15 C8.12735154 12.2118412 5.35581408 9.36021599 2.6875 6.375 C2.17574219 5.80523437 1.66398437 5.23546875 1.13671875 4.6484375 C0 3 0 3 0 0 Z " fill="#347CA3" transform="translate(40,133)"/>
<path d="M0 0 C2.0625 1.6875 2.0625 1.6875 4 4 C3.75 6.75 3.75 6.75 3 9 C1.35 9 -0.3 9 -2 9 C-2.66 7.35 -3.32 5.7 -4 4 C-2.68 2.68 -1.36 1.36 0 0 Z " fill="#7BB739" transform="translate(165,84)"/>
<path d="M0 0 C1.01771484 0.00451172 2.03542969 0.00902344 3.08398438 0.01367188 C5.57688509 0.02537563 8.06966074 0.04177152 10.5625 0.0625 C10.5625 0.3925 10.5625 0.7225 10.5625 1.0625 C8.58830078 1.13597656 8.58830078 1.13597656 6.57421875 1.2109375 C-7.0312297 1.76944319 -7.0312297 1.76944319 -20.4375 4.0625 C-18.4375 1.0625 -18.4375 1.0625 -15.52734375 0.37890625 C-10.36919406 -0.15469544 -5.17874595 -0.04380202 0 0 Z " fill="#3F81A5" transform="translate(123.4375,67.9375)"/>
<path d="M0 0 C0.66 0 1.32 0 2 0 C0.6744419 3.62276315 -0.94346955 6.63505348 -3.125 9.8125 C-3.66382813 10.60269531 -4.20265625 11.39289063 -4.7578125 12.20703125 C-5.37269531 13.09455078 -5.37269531 13.09455078 -6 14 C-6.33 13.01 -6.66 12.02 -7 11 C-6.34 10.01 -5.68 9.02 -5 8 C-4.61500109 6.34450469 -4.27206865 4.6777567 -4 3 C-3.01 3 -2.02 3 -1 3 C-0.67 2.01 -0.34 1.02 0 0 Z " fill="#2A6181" transform="translate(185,152)"/>
<path d="M0 0 C0.6875 1.8125 0.6875 1.8125 1 4 C-0.3125 5.75 -0.3125 5.75 -2 7 C-2.66 7 -3.32 7 -4 7 C-4.33 8.32 -4.66 9.64 -5 11 C-6.98 11.33 -8.96 11.66 -11 12 C-7.49102731 7.81576108 -3.91939465 3.80411834 0 0 Z " fill="#729C3F" transform="translate(182,77)"/>
<path d="M0 0 C0.33 0.66 0.66 1.32 1 2 C3.2941541 2.31426769 5.55773221 2.37924576 7.87109375 2.4609375 C10 3 10 3 11.28515625 5.0390625 C11.52105469 5.68617188 11.75695312 6.33328125 12 7 C7.87853942 7.32325181 5.6324266 7.39022067 2.0625 5.1875 C0 3 0 3 0 0 Z " fill="#2E84B7" transform="translate(78,135)"/>
<path d="M0 0 C1.32 0.33 2.64 0.66 4 1 C3.34 1 2.68 1 2 1 C1.67 3.31 1.34 5.62 1 8 C-0.32 8.33 -1.64 8.66 -3 9 C-3.66 7.68 -4.32 6.36 -5 5 C-3.35 4.67 -1.7 4.34 0 4 C0 2.68 0 1.36 0 0 Z " fill="#2E6990" transform="translate(97,193)"/>
<path d="M0 0 C-1.74802146 0.81674796 -3.49850189 1.62823451 -5.25 2.4375 C-6.71179688 3.11619141 -6.71179688 3.11619141 -8.203125 3.80859375 C-10.49251695 4.78382356 -12.57378746 5.4974274 -15 6 C-14.67 4.68 -14.34 3.36 -14 2 C-12.23225581 1.46877637 -10.46065917 0.95035927 -8.6875 0.4375 C-7.70136719 0.14746094 -6.71523437 -0.14257812 -5.69921875 -0.44140625 C-3 -1 -3 -1 0 0 Z " fill="#2D769E" transform="translate(155,187)"/>
<path d="M0 0 C1.32 0.33 2.64 0.66 4 1 C3.09066991 2.27609323 2.17217147 3.54565553 1.25 4.8125 C0.73953125 5.52019531 0.2290625 6.22789063 -0.296875 6.95703125 C-2.02482358 9.02977691 -3.78526476 10.47375854 -6 12 C-6 11.01 -6 10.02 -6 9 C-5.34 9 -4.68 9 -4 9 C-4.33 8.01 -4.66 7.02 -5 6 C-4.34 6 -3.68 6 -3 6 C-3 5.34 -3 4.68 -3 4 C-2.0206121 2.97980427 -1.02104551 1.97850195 0 1 C0 0.67 0 0.34 0 0 Z " fill="#5D7937" transform="translate(180,70)"/>
<path d="M0 0 C1.43861294 0.08746284 2.87597508 0.19565348 4.3125 0.3125 C5.11300781 0.37050781 5.91351563 0.42851563 6.73828125 0.48828125 C9.36272334 1.08206694 10.30820672 1.95780294 12 4 C11.67 4.66 11.34 5.32 11 6 C10.1646875 5.505 10.1646875 5.505 9.3125 5 C6.69715478 3.8690399 4.8193354 3.84337026 2 4 C1.34 2.68 0.68 1.36 0 0 Z " fill="#71A13F" transform="translate(170,66)"/>
<path d="M0 0 C0.66 0 1.32 0 2 0 C2 0.99 2 1.98 2 3 C2.66 3 3.32 3 4 3 C6.125 4.6875 6.125 4.6875 8 7 C8.25 9.75 8.25 9.75 8 12 C2.00704225 6.16901408 2.00704225 6.16901408 0 3 C0 2.01 0 1.02 0 0 Z " fill="#347DA5" transform="translate(79,181)"/>
<path d="M0 0 C0.99 0.33 1.98 0.66 3 1 C-1.455 3.97 -1.455 3.97 -6 7 C-7 3 -7 3 -6 1 C-3.03 1.495 -3.03 1.495 0 2 C0 1.34 0 0.68 0 0 Z " fill="#2874A1" transform="translate(162,179)"/>
<path d="M0 0 C1.65 0 3.3 0 5 0 C4.01 1.485 4.01 1.485 3 3 C2.83286431 5.62531524 2.83286431 5.62531524 3 8 C1.68 8 0.36 8 -1 8 C-1.93065133 5.39417629 -2.14917407 4.35801776 -1.0625 1.75 C-0.711875 1.1725 -0.36125 0.595 0 0 Z " fill="#2B7299" transform="translate(96,120)"/>
<path d="M0 0 C0.66 0 1.32 0 2 0 C1.814375 1.093125 1.62875 2.18625 1.4375 3.3125 C0.7421932 6.93624133 0.7421932 6.93624133 2 10 C1.34 10 0.68 10 0 10 C-0.33 11.32 -0.66 12.64 -1 14 C-2.51708428 4.58997722 -2.51708428 4.58997722 0 0 Z " fill="#739944" transform="translate(159,74)"/>
<path d="M0 0 C-0.33 2.31 -0.66 4.62 -1 7 C-3.375 6.6875 -3.375 6.6875 -6 6 C-6.66 5.01 -7.32 4.02 -8 3 C-6.68 3.33 -5.36 3.66 -4 4 C-4 3.01 -4 2.02 -4 1 C-2 0 -2 0 0 0 Z " fill="#3389BE" transform="translate(60,147)"/>
<path d="M0 0 C0.33 0.99 0.66 1.98 1 3 C-0.4096347 3.70180531 -1.82807641 4.38593958 -3.25 5.0625 C-4.03890625 5.44535156 -4.8278125 5.82820312 -5.640625 6.22265625 C-8.25993522 7.08564091 -9.44855176 6.93045933 -12 6 C-10.37829621 4.99466333 -8.75252763 3.99588093 -7.125 3 C-5.76761719 2.1646875 -5.76761719 2.1646875 -4.3828125 1.3125 C-2 0 -2 0 0 0 Z " fill="#3284B5" transform="translate(154,170)"/>
<path d="M0 0 C0.66 0 1.32 0 2 0 C2.27648714 2.4162572 2.52178337 4.82911377 2.75 7.25 C2.87181641 8.27287109 2.87181641 8.27287109 2.99609375 9.31640625 C3.31423444 12.95734966 3.33866546 14.57600151 1.015625 17.484375 C0.35046875 17.98453125 -0.3146875 18.4846875 -1 19 C-0.835 17.72125 -0.67 16.4425 -0.5 15.125 C0.07041736 10.0715842 0.09543708 5.07937351 0 0 Z " fill="#33759A" transform="translate(177,121)"/>
<path d="M0 0 C5.75 0.75 5.75 0.75 8 3 C8.125 6.625 8.125 6.625 8 10 C7.7525 9.38125 7.505 8.7625 7.25 8.125 C6.17856271 5.86253506 6.17856271 5.86253506 4 5 C1.50983207 3.75491604 1.01313282 2.53283204 0 0 Z " fill="#256488" transform="translate(157,108)"/>
<path d="M0 0 C2.31 0 4.62 0 7 0 C7 3 7 3 5.625 4.6875 C4 6 4 6 2 6 C2 5.34 2 4.68 2 4 C1.34 4 0.68 4 0 4 C0 2.68 0 1.36 0 0 Z " fill="#2E93D3" transform="translate(42,133)"/>
<path d="M0 0 C2.64 0 5.28 0 8 0 C8.33 1.32 8.66 2.64 9 4 C8.01 4.495 8.01 4.495 7 5 C7 4.34 7 3.68 7 3 C5.35 3.33 3.7 3.66 2 4 C2 3.34 2 2.68 2 2 C1.34 2 0.68 2 0 2 C0 1.34 0 0.68 0 0 Z " fill="#3178A5" transform="translate(110,129)"/>
<path d="M0 0 C0.99 0.33 1.98 0.66 3 1 C3 1.66 3 2.32 3 3 C2.34 3 1.68 3 1 3 C0.5359375 3.928125 0.5359375 3.928125 0.0625 4.875 C-0.625 6.25 -1.3125 7.625 -2 9 C-3.32 8.67 -4.64 8.34 -6 8 C-5.01 7.34 -4.02 6.68 -3 6 C-2.27840576 4.35636866 -1.60648579 2.68949614 -1 1 C-0.67 0.67 -0.34 0.34 0 0 Z " fill="#2A87C5" transform="translate(75,71)"/>
<path d="M0 0 C0.66 1.32 1.32 2.64 2 4 C-2.625 8.875 -2.625 8.875 -6 10 C-6 9.34 -6 8.68 -6 8 C-6.66 7.67 -7.32 7.34 -8 7 C-4.535 6.505 -4.535 6.505 -1 6 C-0.67 4.02 -0.34 2.04 0 0 Z " fill="#62833D" transform="translate(185,86)"/>
<path d="M0 0 C0.66 0.33 1.32 0.66 2 1 C0.9375 3.5 0.9375 3.5 -1 6 C-4.6875 6.3125 -4.6875 6.3125 -8 6 C-7 3 -7 3 -3.5625 1.25 C-2.386875 0.8375 -1.21125 0.425 0 0 Z " fill="#3584B1" transform="translate(90,174)"/>
<path d="M0 0 C3.68754757 0.49831724 5.60490662 1.10067643 8 4 C7.67 4.99 7.34 5.98 7 7 C6.01 7.33 5.02 7.66 4 8 C3.896875 7.236875 3.79375 6.47375 3.6875 5.6875 C2.95635961 2.82940576 2.23048087 1.84257115 0 0 Z " fill="#2C749B" transform="translate(185,100)"/>
<path d="M0 0 C1.66666667 1.66666667 3.33333333 3.33333333 5 5 C5.8971875 5.8353125 5.8971875 5.8353125 6.8125 6.6875 C8 8 8 8 8 10 C6.68 9.67 5.36 9.34 4 9 C4 8.01 4 7.02 4 6 C3.34 6 2.68 6 2 6 C1.34 4.02 0.68 2.04 0 0 Z " fill="#275F7B" transform="translate(193,106)"/>
<path d="M0 0 C2.64 0.33 5.28 0.66 8 1 C7.67 2.65 7.34 4.3 7 6 C6.34 6 5.68 6 5 6 C5 5.01 5 4.02 5 3 C3.35 2.67 1.7 2.34 0 2 C0 1.34 0 0.68 0 0 Z " fill="#2A8BC0" transform="translate(99,128)"/>
<path d="M0 0 C0.66 0.99 1.32 1.98 2 3 C1.01 3.33 0.02 3.66 -1 4 C-1 4.66 -1 5.32 -1 6 C-1.66 6 -2.32 6 -3 6 C-2.67 6.99 -2.34 7.98 -2 9 C-2.99 8.67 -3.98 8.34 -5 8 C-3.8141763 4.62496331 -2.72426311 2.35277269 0 0 Z " fill="#337CA3" transform="translate(174,112)"/>
<path d="M0 0 C3.39641834 2.26427889 4.84438646 4.58075094 7 8 C6.01 8 5.02 8 4 8 C3.731875 7.360625 3.46375 6.72125 3.1875 6.0625 C2.11332248 3.66868314 2.11332248 3.66868314 -1 3 C-0.67 2.01 -0.34 1.02 0 0 Z " fill="#607D3C" transform="translate(164,80)"/>
<path d="M0 0 C2 2 2 2 2.375 4.875 C1.92491816 8.62568199 0.87398748 9.66488517 -2 12 C-2.66 11.34 -3.32 10.68 -4 10 C-3.01 9.67 -2.02 9.34 -1 9 C-1 8.34 -1 7.68 -1 7 C-0.34 7 0.32 7 1 7 C0.67 4.69 0.34 2.38 0 0 Z " fill="#285467" transform="translate(151,59)"/>
<path d="M0 0 C0.99 0.33 1.98 0.66 3 1 C3.33 3.64 3.66 6.28 4 9 C3.01 9.33 2.02 9.66 1 10 C-0.1577506 6.52674819 -0.06866652 3.63932552 0 0 Z " fill="#3087B3" transform="translate(148,57)"/>
<path d="M0 0 C5.94 1.485 5.94 1.485 12 3 C12 3.33 12 3.66 12 4 C6.06 4.495 6.06 4.495 0 5 C0 3.35 0 1.7 0 0 Z " fill="#30769E" transform="translate(101,177)"/>
<path d="M0 0 C-1.47692308 4.67692308 -1.47692308 4.67692308 -4.125 6.3125 C-5.053125 6.6528125 -5.053125 6.6528125 -6 7 C-6 5.35 -6 3.7 -6 2 C-2.25 0 -2.25 0 0 0 Z " fill="#2B678E" transform="translate(65,147)"/>
<path d="M0 0 C2.05078125 0.03255208 4.1015625 0.06510417 6.15234375 0.09765625 C4.90234375 2.09765625 4.90234375 2.09765625 3.15234375 4.09765625 C1.83234375 4.09765625 0.51234375 4.09765625 -0.84765625 4.09765625 C-0.84765625 3.43765625 -0.84765625 2.77765625 -0.84765625 2.09765625 C-1.50765625 1.76765625 -2.16765625 1.43765625 -2.84765625 1.09765625 C-1.84765625 0.09765625 -1.84765625 0.09765625 0 0 Z " fill="#2478A0" transform="translate(84.84765625,77.90234375)"/>
<path d="M0 0 C0.33 0.99 0.66 1.98 1 3 C0.01 3.66 -0.98 4.32 -2 5 C-2.72382467 7.05925139 -2.72382467 7.05925139 -3 9 C-4.32 8.67 -5.64 8.34 -7 8 C-4.69 5.36 -2.38 2.72 0 0 Z " fill="#3177A0" transform="translate(72,74)"/>
<path d="M0 0 C1.65 0 3.3 0 5 0 C5.33 0.66 5.66 1.32 6 2 C5.01 2.33 4.02 2.66 3 3 C1.78130071 5.50447516 1.78130071 5.50447516 1 8 C0.67 8 0.34 8 0 8 C-1.125 2.25 -1.125 2.25 0 0 Z " fill="#2476A1" transform="translate(117,99)"/>
<path d="M0 0 C0 0.66 0 1.32 0 2 C-0.763125 2.28875 -1.52625 2.5775 -2.3125 2.875 C-5.15029308 3.96269013 -5.15029308 3.96269013 -8 6 C-10.1875 5.625 -10.1875 5.625 -12 5 C-10.37750059 4.16180842 -8.75191503 3.3295884 -7.125 2.5 C-6.22007813 2.0359375 -5.31515625 1.571875 -4.3828125 1.09375 C-2 0 -2 0 0 0 Z " fill="#317FB1" transform="translate(99,58)"/>
<path d="M0 0 C1.32 0 2.64 0 4 0 C4.125 2.875 4.125 2.875 4 6 C3.34 6.66 2.68 7.32 2 8 C2 7.34 2 6.68 2 6 C1.34 6 0.68 6 0 6 C0 5.01 0 4.02 0 3 C0.66 2.67 1.32 2.34 2 2 C1.34 1.34 0.68 0.68 0 0 Z " fill="#318DC5" transform="translate(98,171)"/>
<path d="M0 0 C0.66 0 1.32 0 2 0 C1.67 2.97 1.34 5.94 1 9 C0.01 9.33 -0.98 9.66 -2 10 C-1.34 6.7 -0.68 3.4 0 0 Z " fill="#2F85BA" transform="translate(175,141)"/>
<path d="M0 0 C0.99 0.33 1.98 0.66 3 1 C2.67 1.99 2.34 2.98 2 4 C1.34 4 0.68 4 0 4 C-0.33 4.99 -0.66 5.98 -1 7 C-1.66 7 -2.32 7 -3 7 C-1.125 1.125 -1.125 1.125 0 0 Z " fill="#2F7CAF" transform="translate(58,93)"/>
<path d="M0 0 C0.66 1.32 1.32 2.64 2 4 C1.01 5.485 1.01 5.485 0 7 C-0.33 6.01 -0.66 5.02 -1 4 C-1.66 4 -2.32 4 -3 4 C-3 3.01 -3 2.02 -3 1 C-2.01 0.67 -1.02 0.34 0 0 Z " fill="#7ABE43" transform="translate(183,85)"/>
<path d="M0 0 C0.66 1.98 1.32 3.96 2 6 C-0.31 5.34 -2.62 4.68 -5 4 C-4.67 3.01 -4.34 2.02 -4 1 C-2 0 -2 0 0 0 Z " fill="#2C8ABC" transform="translate(87,64)"/>
<path d="M0 0 C-0.33 1.32 -0.66 2.64 -1 4 C-2.98 4 -4.96 4 -7 4 C-4.83989616 0.75984424 -3.8842653 0 0 0 Z " fill="#2F89B9" transform="translate(167,160)"/>
<path d="M0 0 C-0.33 1.65 -0.66 3.3 -1 5 C-2.65 4.67 -4.3 4.34 -6 4 C-2.25 0 -2.25 0 0 0 Z " fill="#2795DA" transform="translate(185,150)"/>
<path d="M0 0 C1.60080151 4.00200378 0.29279692 7.04556236 -1 11 C-1.33 11 -1.66 11 -2 11 C-2.25 3.375 -2.25 3.375 0 0 Z " fill="#224E63" transform="translate(192,134)"/>
<path d="M0 0 C0.99 0.33 1.98 0.66 3 1 C1.515 4.465 1.515 4.465 0 8 C-0.66 8 -1.32 8 -2 8 C-2 7.01 -2 6.02 -2 5 C-1.34 5 -0.68 5 0 5 C0 3.35 0 1.7 0 0 Z " fill="#2C618B" transform="translate(163,133)"/>
<path d="M0 0 C1.65 0 3.3 0 5 0 C3.63016497 3.16115776 3.0109362 3.9927092 0 6 C0 4.02 0 2.04 0 0 Z " fill="#2D6D93" transform="translate(170,170)"/>
<path d="M0 0 C0.66 0 1.32 0 2 0 C2.33 2.31 2.66 4.62 3 7 C2.01 6.67 1.02 6.34 0 6 C0 4.02 0 2.04 0 0 Z " fill="#2191D7" transform="translate(60,128)"/>
<path d="M0 0 C0.33 0 0.66 0 1 0 C1 3.3 1 6.6 1 10 C-0.98 10.99 -0.98 10.99 -3 12 C-2.67 11.01 -2.34 10.02 -2 9 C-1.34 9 -0.68 9 0 9 C0 6.03 0 3.06 0 0 Z " fill="#2E7498" transform="translate(137,155)"/>
</svg>
